<svg width="100" height="100" viewBox="0 0 100 100" fill="none" xmlns="http://www.w3.org/2000/svg">
<rect width="100" height="100" fill="white"/>
<path d="M51.3202 26.5452L50.3941 26.8263L13.409 39.2178L5 41.9902L9.89684 43.5584V69.448C8.13043 70.4747 6.93802 72.3476 6.93802 74.5371C6.93802 76.1066 7.56149 77.6118 8.67126 78.7215C9.78103 79.8313 11.2862 80.4548 12.8557 80.4548C14.4251 80.4548 15.9303 79.8313 17.0401 78.7215C18.1498 77.6118 18.7733 76.1066 18.7733 74.5371C18.7733 72.3476 17.5809 70.4747 15.8145 69.448V45.5999L21.7321 47.538V62.7019C21.7321 65.1281 23.2115 67.1401 24.969 68.5308C26.7266 69.9125 28.9102 70.8889 31.5317 71.7647C36.7806 73.5104 43.6983 74.5371 51.3202 74.5371C58.9422 74.5371 65.8599 73.5134 71.1088 71.7618C73.7303 70.8889 75.9139 69.9125 77.6715 68.5278C79.429 67.1401 80.9084 65.1281 80.9084 62.7019V47.538L89.2315 44.7626L97.6405 41.9902L89.2286 39.2148L52.2434 26.8263L51.3202 26.5452ZM51.3202 32.7439L79.0591 41.9902L51.3202 51.2365L23.5814 41.9902L51.3202 32.7439ZM27.6497 49.5736L50.3971 57.1541L51.3202 57.4322L52.2464 57.1512L74.9908 49.5707V62.7019C74.9908 62.7315 75.0026 63.0747 74.0647 63.8114C73.1297 64.5511 71.452 65.4832 69.2566 66.217C64.8716 67.6757 58.4066 68.6195 51.3202 68.6195C44.2339 68.6195 37.7689 67.6786 33.381 66.214C31.1914 65.4832 29.5108 64.5482 28.5758 63.8114C27.6349 63.0717 27.6497 62.7315 27.6497 62.7019V49.5707V49.5736Z" fill="#A12137"/>
</svg>
