<svg width="161" height="42" viewBox="0 0 161 42" fill="none" xmlns="http://www.w3.org/2000/svg">
<path d="M32.0776 4.66675L31.4362 4.86141L5.82334 13.4427L0 15.3627L3.39114 16.4487V34.3777C2.16787 35.0887 1.34211 36.3857 1.34211 37.902C1.34211 38.9889 1.77387 40.0312 2.54241 40.7998C3.31094 41.5683 4.3533 42.0001 5.44017 42.0001C6.52705 42.0001 7.5694 41.5683 8.33794 40.7998C9.10647 40.0312 9.53823 38.9889 9.53823 37.902C9.53823 36.3857 8.71247 35.0887 7.4892 34.3777V17.8625L11.5873 19.2046V29.7059C11.5873 31.3861 12.6118 32.7794 13.8289 33.7425C15.046 34.6994 16.5582 35.3756 18.3736 35.9821C22.0086 37.191 26.7993 37.902 32.0776 37.902C37.3559 37.902 42.1465 37.193 45.7815 35.98C47.5969 35.3756 49.1091 34.6994 50.3262 33.7404C51.5433 32.7794 52.5679 31.3861 52.5679 29.7059V19.2046L58.3318 17.2826L64.1551 15.3627L58.3297 13.4407L32.7169 4.86141L32.0776 4.66675ZM32.0776 8.95947L51.2872 15.3627L32.0776 21.7659L12.8679 15.3627L32.0776 8.95947ZM15.6853 20.6143L31.4383 25.864L32.0776 26.0566L32.7189 25.8619L48.4698 20.6123V29.7059C48.4698 29.7264 48.478 29.9641 47.8285 30.4743C47.181 30.9865 46.0192 31.632 44.4988 32.1401C41.4621 33.1503 36.985 33.804 32.0776 33.804C27.1701 33.804 22.693 33.1524 19.6543 32.1381C18.138 31.632 16.9742 30.9845 16.3267 30.4743C15.6751 29.962 15.6853 29.7264 15.6853 29.7059V20.6123V20.6143Z" fill="#A12137
"/>
<path d="M82.7381 22.2224H76.8693L75.9285 25H71.9189L77.6085 9.27521H82.0437L87.7333 25H83.6789L82.7381 22.2224ZM81.7525 19.2656L79.8037 13.5088L77.8773 19.2656H81.7525ZM93.2954 22.0432H98.313V25H89.465V9.27521H93.2954V22.0432ZM103.903 9.27521V18.6832C103.903 19.624 104.135 20.3483 104.598 20.856C105.06 21.3637 105.74 21.6176 106.636 21.6176C107.532 21.6176 108.219 21.3637 108.697 20.856C109.175 20.3483 109.414 19.624 109.414 18.6832V9.27521H113.244V18.6608C113.244 20.0645 112.945 21.2517 112.348 22.2224C111.751 23.1931 110.944 23.9248 109.929 24.4176C108.928 24.9104 107.808 25.1568 106.569 25.1568C105.329 25.1568 104.217 24.9179 103.231 24.44C102.26 23.9472 101.491 23.2155 100.924 22.2448C100.356 21.2592 100.073 20.0645 100.073 18.6608V9.27521H103.903ZM133.742 9.27521V25H129.911V15.5696L126.395 25H123.303L119.764 15.5472V25H115.934V9.27521H120.459L124.871 20.1616L129.239 9.27521H133.742ZM150.563 25H146.733L140.327 15.3008V25H136.496V9.27521H140.327L146.733 19.0192V9.27521H150.563V25ZM157.17 9.27521V25H153.34V9.27521H157.17Z" fill="black"/>
<path d="M72.9354 32.5243L74.4748 37.1802H74.5355L76.072 32.5243H77.2504L75.1651 38.4395H73.8423L71.7598 32.5243H72.9354ZM80.2397 32.5243V38.4395H79.1682V32.5243H80.2397ZM82.5388 38.4395V32.5243H84.7569C85.2114 32.5243 85.5926 32.6032 85.9007 32.7611C86.2107 32.919 86.4446 33.1405 86.6025 33.4254C86.7623 33.7085 86.8423 34.0387 86.8423 34.4161C86.8423 34.7954 86.7614 35.1247 86.5996 35.4039C86.4398 35.6812 86.2039 35.8959 85.892 36.048C85.5801 36.1982 85.1969 36.2733 84.7425 36.2733H83.1626V35.3837H84.5981C84.8638 35.3837 85.0814 35.3471 85.2508 35.2739C85.4203 35.1988 85.5454 35.09 85.6263 34.9476C85.7091 34.8031 85.7505 34.626 85.7505 34.4161C85.7505 34.2062 85.7091 34.0272 85.6263 33.8789C85.5435 33.7287 85.4174 33.6151 85.2479 33.5381C85.0785 33.4591 84.8599 33.4197 84.5923 33.4197H83.6103V38.4395H82.5388ZM85.5945 35.7592L87.0589 38.4395H85.8631L84.4248 35.7592H85.5945ZM92.696 32.5243H93.7675V36.3888C93.7675 36.8124 93.6674 37.185 93.4672 37.5065C93.2688 37.8281 92.9896 38.0794 92.6296 38.2604C92.2695 38.4395 91.8488 38.529 91.3674 38.529C90.8841 38.529 90.4624 38.4395 90.1023 38.2604C89.7423 38.0794 89.4631 37.8281 89.2648 37.5065C89.0664 37.185 88.9673 36.8124 88.9673 36.3888V32.5243H90.0388V36.2993C90.0388 36.5457 90.0927 36.7652 90.2005 36.9578C90.3103 37.1503 90.4643 37.3015 90.6627 37.4112C90.861 37.5191 91.0959 37.573 91.3674 37.573C91.6389 37.573 91.8738 37.5191 92.0721 37.4112C92.2724 37.3015 92.4264 37.1503 92.5343 36.9578C92.6421 36.7652 92.696 36.5457 92.696 36.2993V32.5243ZM95.811 33.4226V32.5243H100.53V33.4226H98.7021V38.4395H97.6392V33.4226H95.811ZM106.308 32.5243H107.379V36.3888C107.379 36.8124 107.279 37.185 107.079 37.5065C106.88 37.8281 106.601 38.0794 106.241 38.2604C105.881 38.4395 105.46 38.529 104.979 38.529C104.496 38.529 104.074 38.4395 103.714 38.2604C103.354 38.0794 103.075 37.8281 102.876 37.5065C102.678 37.185 102.579 36.8124 102.579 36.3888V32.5243H103.65V36.2993C103.65 36.5457 103.704 36.7652 103.812 36.9578C103.922 37.1503 104.076 37.3015 104.274 37.4112C104.473 37.5191 104.707 37.573 104.979 37.573C105.25 37.573 105.485 37.5191 105.684 37.4112C105.884 37.3015 106.038 37.1503 106.146 36.9578C106.254 36.7652 106.308 36.5457 106.308 36.2993V32.5243ZM110.442 38.4395H109.298L111.381 32.5243H112.704L114.789 38.4395H113.645L112.065 33.7374H112.019L110.442 38.4395ZM110.48 36.1202H113.599V36.9809H110.48V36.1202ZM116.707 38.4395V32.5243H117.778V37.5412H120.383V38.4395H116.707ZM130.894 35.4819C130.894 36.1192 130.774 36.6651 130.536 37.1195C130.299 37.572 129.975 37.9186 129.565 38.1593C129.157 38.4 128.694 38.5203 128.176 38.5203C127.658 38.5203 127.194 38.4 126.784 38.1593C126.376 37.9167 126.052 37.5691 125.813 37.1166C125.576 36.6622 125.458 36.1173 125.458 35.4819C125.458 34.8445 125.576 34.2996 125.813 33.8471C126.052 33.3927 126.376 33.0452 126.784 32.8045C127.194 32.5638 127.658 32.4434 128.176 32.4434C128.694 32.4434 129.157 32.5638 129.565 32.8045C129.975 33.0452 130.299 33.3927 130.536 33.8471C130.774 34.2996 130.894 34.8445 130.894 35.4819ZM129.816 35.4819C129.816 35.0332 129.746 34.6549 129.606 34.3468C129.467 34.0368 129.274 33.8028 129.028 33.6449C128.781 33.4851 128.497 33.4052 128.176 33.4052C127.854 33.4052 127.57 33.4851 127.324 33.6449C127.077 33.8028 126.884 34.0368 126.743 34.3468C126.605 34.6549 126.535 35.0332 126.535 35.4819C126.535 35.9305 126.605 36.3098 126.743 36.6199C126.884 36.9279 127.077 37.1619 127.324 37.3217C127.57 37.4796 127.854 37.5585 128.176 37.5585C128.497 37.5585 128.781 37.4796 129.028 37.3217C129.274 37.1619 129.467 36.9279 129.606 36.6199C129.746 36.3098 129.816 35.9305 129.816 35.4819ZM133.045 38.4395V32.5243H136.835V33.4226H134.117V35.0284H136.575V35.9267H134.117V38.4395H133.045ZM138.95 38.4395V32.5243H142.739V33.4226H140.021V35.0284H142.479V35.9267H140.021V38.4395H138.95ZM145.926 32.5243V38.4395H144.854V32.5243H145.926ZM153.288 34.5201H152.208C152.177 34.3429 152.12 34.186 152.037 34.0493C151.954 33.9107 151.851 33.7932 151.728 33.6969C151.605 33.6007 151.464 33.5285 151.306 33.4803C151.15 33.4303 150.982 33.4052 150.801 33.4052C150.479 33.4052 150.194 33.4861 149.946 33.6478C149.698 33.8077 149.503 34.0426 149.363 34.3526C149.222 34.6607 149.152 35.0371 149.152 35.4819C149.152 35.9344 149.222 36.3156 149.363 36.6256C149.505 36.9337 149.7 37.1667 149.946 37.3246C150.194 37.4806 150.478 37.5585 150.798 37.5585C150.975 37.5585 151.141 37.5354 151.295 37.4892C151.451 37.4411 151.59 37.3708 151.714 37.2784C151.839 37.1859 151.944 37.0723 152.028 36.9376C152.115 36.8028 152.175 36.6487 152.208 36.4754L153.288 36.4812C153.247 36.7623 153.16 37.0261 153.025 37.2726C152.892 37.5191 152.718 37.7366 152.502 37.9253C152.286 38.1121 152.034 38.2585 151.745 38.3644C151.457 38.4683 151.136 38.5203 150.784 38.5203C150.264 38.5203 149.8 38.4 149.391 38.1593C148.983 37.9186 148.662 37.5711 148.427 37.1166C148.192 36.6622 148.074 36.1173 148.074 35.4819C148.074 34.8445 148.193 34.2996 148.43 33.8471C148.667 33.3927 148.989 33.0452 149.397 32.8045C149.805 32.5638 150.268 32.4434 150.784 32.4434C151.113 32.4434 151.419 32.4896 151.702 32.5821C151.985 32.6745 152.237 32.8102 152.459 32.9893C152.68 33.1665 152.862 33.384 153.005 33.6421C153.149 33.8982 153.243 34.1908 153.288 34.5201ZM155.408 38.4395V32.5243H159.255V33.4226H156.479V35.0284H159.056V35.9267H156.479V37.5412H159.278V38.4395H155.408Z" fill="black"/>
</svg>
