<svg width="24" height="24" viewBox="0 0 24 24" fill="none" xmlns="http://www.w3.org/2000/svg">
<path d="M15.8209 15.0567L18.8777 12M18.8777 12L15.8209 8.94322M18.8777 12H8.17906M12.7642 15.0567V15.8209C12.7642 16.4289 12.5227 17.0121 12.0927 17.442C11.6628 17.8719 11.0797 18.1135 10.4716 18.1135H7.41488C6.80685 18.1135 6.22373 17.8719 5.79379 17.442C5.36385 17.0121 5.12231 16.4289 5.12231 15.8209V8.17904C5.12231 7.57101 5.36385 6.98789 5.79379 6.55795C6.22373 6.12801 6.80685 5.88647 7.41488 5.88647H10.4716C11.0797 5.88647 11.6628 6.12801 12.0927 6.55795C12.5227 6.98789 12.7642 7.57101 12.7642 8.17904V8.94322" stroke="black" stroke-width="1.52837" stroke-linecap="round" stroke-linejoin="round"/>
</svg>
