<svg width="24" height="24" viewBox="0 0 24 24" fill="none" xmlns="http://www.w3.org/2000/svg">
<path d="M6.67236 19.6114H17.3278C17.7315 19.6114 18.1187 19.451 18.4042 19.1655C18.6897 18.8801 18.85 18.4929 18.85 18.0892V11.2392C18.8506 11.1391 18.8314 11.0398 18.7935 10.947C18.7557 10.8543 18.6999 10.77 18.6293 10.6988L12.5405 4.61C12.3979 4.46824 12.205 4.38867 12.0039 4.38867C11.8028 4.38867 11.6099 4.46824 11.4673 4.61L5.37848 10.6988C5.30656 10.7693 5.24935 10.8534 5.21016 10.9461C5.17096 11.0389 5.15056 11.1385 5.15015 11.2392V18.0892C5.15015 18.4929 5.31052 18.8801 5.59599 19.1655C5.88146 19.451 6.26864 19.6114 6.67236 19.6114ZM10.4779 18.0892V14.2836H13.5223V18.0892H10.4779ZM6.67236 11.5513L12.0001 6.22354L17.3278 11.5513V18.0892H15.0445V14.2836C15.0445 13.8799 14.8841 13.4927 14.5987 13.2073C14.3132 12.9218 13.926 12.7614 13.5223 12.7614H10.4779C10.0742 12.7614 9.68699 12.9218 9.40152 13.2073C9.11605 13.4927 8.95567 13.8799 8.95567 14.2836V18.0892H6.67236V11.5513Z" fill="black"/>
</svg>
