<svg width="24" height="24" viewBox="0 0 24 24" fill="none" xmlns="http://www.w3.org/2000/svg">
<path d="M17.9524 15.1429V10.9333C17.5476 11.0143 17.1429 11.0952 16.7381 11.0952H16.3333V15.9524H8.2381V10.2857C8.2381 8.01905 10.019 6.2381 12.2857 6.2381C12.3667 5.18571 12.8524 4.29524 13.5 3.56667C13.2571 3.24286 12.7714 3 12.2857 3C11.3952 3 10.6667 3.72857 10.6667 4.61905V4.8619C8.2381 5.59048 6.61905 7.77619 6.61905 10.2857V15.1429L5 16.7619V17.5714H19.5714V16.7619L17.9524 15.1429ZM10.6667 18.381C10.6667 19.2714 11.3952 20 12.2857 20C13.1762 20 13.9048 19.2714 13.9048 18.381H10.6667ZM19.5714 6.64286C19.5714 8.18095 18.2762 9.47619 16.7381 9.47619C15.2 9.47619 13.9048 8.18095 13.9048 6.64286C13.9048 5.10476 15.2 3.80952 16.7381 3.80952C18.2762 3.80952 19.5714 5.10476 19.5714 6.64286Z" fill="black"/>
</svg>
