<svg width="24" height="24" viewBox="0 0 24 24" fill="none" xmlns="http://www.w3.org/2000/svg">
<path d="M15.2 13.6875C14.175 13.6875 13.6821 14.25 12 14.25C10.3179 14.25 9.82857 13.6875 8.8 13.6875C6.15 13.6875 4 15.8039 4 18.4125V19.3125C4 20.2441 4.76786 21 5.71429 21H18.2857C19.2321 21 20 20.2441 20 19.3125V18.4125C20 15.8039 17.85 13.6875 15.2 13.6875ZM18.2857 19.3125H5.71429V18.4125C5.71429 16.7391 7.1 15.375 8.8 15.375C9.32143 15.375 10.1679 15.9375 12 15.9375C13.8464 15.9375 14.675 15.375 15.2 15.375C16.9 15.375 18.2857 16.7391 18.2857 18.4125V19.3125ZM12 13.125C14.8393 13.125 17.1429 10.8574 17.1429 8.0625C17.1429 5.26758 14.8393 3 12 3C9.16071 3 6.85714 5.26758 6.85714 8.0625C6.85714 10.8574 9.16071 13.125 12 13.125ZM12 4.6875C13.8893 4.6875 15.4286 6.20273 15.4286 8.0625C15.4286 9.92227 13.8893 11.4375 12 11.4375C10.1107 11.4375 8.57143 9.92227 8.57143 8.0625C8.57143 6.20273 10.1107 4.6875 12 4.6875Z" fill="black"/>
</svg>
