<svg width="24" height="24" viewBox="0 0 24 24" fill="none" xmlns="http://www.w3.org/2000/svg">
<path d="M16.4324 11.5345C16.9614 10.6332 17.1898 9.58694 17.0846 8.54718C16.9292 6.99792 16.0642 5.62843 14.6505 4.69141L13.6909 6.13819C14.6626 6.78256 15.254 7.70047 15.3565 8.72086C15.4037 9.19511 15.3447 9.67392 15.1837 10.1225C15.0226 10.571 14.7636 10.9781 14.4255 11.314L13.3904 12.3491L14.7955 12.7616C18.4706 13.8384 18.5132 17.5344 18.5132 17.5718H20.25C20.25 16.0182 19.4198 12.9822 16.4324 11.5345Z" fill="black"/>
<path d="M10.2631 12.3614C12.1789 12.3614 13.7368 10.8035 13.7368 8.88773C13.7368 6.972 12.1789 5.41406 10.2631 5.41406C8.3474 5.41406 6.78946 6.972 6.78946 8.88773C6.78946 10.8035 8.3474 12.3614 10.2631 12.3614ZM10.2631 7.1509C11.221 7.1509 12 7.92987 12 8.88773C12 9.8456 11.221 10.6246 10.2631 10.6246C9.30527 10.6246 8.5263 9.8456 8.5263 8.88773C8.5263 7.92987 9.30527 7.1509 10.2631 7.1509ZM11.5658 13.2298H8.96051C6.08691 13.2298 3.75 15.5667 3.75 18.4403V19.3087H5.48684V18.4403C5.48684 16.5246 7.04478 14.9667 8.96051 14.9667H11.5658C13.4815 14.9667 15.0394 16.5246 15.0394 18.4403V19.3087H16.7763V18.4403C16.7763 15.5667 14.4394 13.2298 11.5658 13.2298Z" fill="black"/>
</svg>
