<svg width="24" height="24" viewBox="0 0 24 24" fill="none" xmlns="http://www.w3.org/2000/svg">
<path d="M13.3797 16.7087C16.0024 16.7149 17.3141 16.718 18.1305 15.9048C18.9475 15.0923 18.9506 13.7806 18.9568 11.1579C18.963 8.53516 18.9661 7.22346 18.1529 6.40711C17.3404 5.59006 16.0287 5.58696 13.406 5.58076L10.624 5.57419C8.00131 5.56799 6.6896 5.56489 5.87325 6.37808C5.05621 7.19058 5.05311 8.50229 5.04691 11.125C5.04071 13.7477 5.03761 15.0594 5.8508 15.8758C6.30389 16.3317 6.91197 16.5341 7.81591 16.6246" stroke="black" stroke-width="1.62924" stroke-linecap="round" stroke-linejoin="round"/>
<path d="M12.0019 11.1414L12.0019 11.1484M9.21994 11.1349L9.21992 11.1418M14.7839 11.148L14.7839 11.155M13.3798 16.7087C12.5201 16.7067 11.572 17.0522 10.7065 17.4987C9.31517 18.2167 8.61952 18.576 8.27788 18.345C7.93624 18.1146 8.00261 17.4019 8.13603 15.9771L8.16601 15.6531" stroke="black" stroke-width="1.62924" stroke-linecap="round"/>
</svg>
