<svg width="100" height="100" viewBox="0 0 100 100" fill="none" xmlns="http://www.w3.org/2000/svg">
<rect width="100" height="100" fill="white"/>
<path d="M48.3614 28L47.5945 28.2328L16.9641 38.4952L10 40.7912L14.0555 42.09V63.5312C12.5926 64.3815 11.605 65.9326 11.605 67.7459C11.605 69.0457 12.1214 70.2923 13.0405 71.2114C13.9595 72.1304 15.2061 72.6468 16.5059 72.6468C17.8057 72.6468 19.0522 72.1304 19.9713 71.2114C20.8904 70.2923 21.4067 69.0457 21.4067 67.7459C21.4067 65.9326 20.4192 64.3815 18.9563 63.5312V43.7808L23.8572 45.3858V57.9442C23.8572 59.9536 25.0824 61.6199 26.5379 62.7716C27.9935 63.9159 29.8019 64.7246 31.973 65.4499C36.32 66.8956 42.0491 67.7459 48.3614 67.7459C54.6737 67.7459 60.4028 66.8981 64.7499 65.4474C66.921 64.7246 68.7294 63.9159 70.1849 62.7691C71.6405 61.6199 72.8657 59.9536 72.8657 57.9442V45.3858L79.7588 43.0873L86.7229 40.7912L79.7563 38.4927L49.126 28.2328L48.3614 28ZM48.3614 33.1336L71.3342 40.7912L48.3614 48.4488L25.3887 40.7912L48.3614 33.1336ZM28.758 47.0717L47.5969 53.3497L48.3614 53.58L49.1284 53.3472L67.9649 47.0692V57.9442C67.9649 57.9687 67.9747 58.253 67.1979 58.8631C66.4235 59.4757 65.0341 60.2476 63.2159 60.8553C59.5844 62.0634 54.2302 62.8451 48.3614 62.8451C42.4927 62.8451 37.1385 62.0658 33.5045 60.8529C31.6912 60.2476 30.2993 59.4733 29.525 58.8631C28.7458 58.2505 28.758 57.9687 28.758 57.9442V47.0692V47.0717Z" fill="#A12137"/>
</svg>
